# xmcd CD database file
#
# Track frame offsets:
#	150
#	30022
#	57025
#	70522
#	84775
#	99587
#	114010
#	139732
#	156852
#	167434
#	180567
#	197640
#	216685
#	231657
#
# Disc length: 3443 seconds
#
# Revision: 3
# Processed by: cddbd v1.5.2PL0 Copyright (c) Steve Scherf et al.
# Submitted via: CDex 1.51
#
DISCID=ac0d710e
DTITLE=Various Artist - Guitar Heroes cd3
DYEAR=2000
DGENRE=Blues
TTITLE0=Jimi Hendrix - Sunshine Of Your Love (live)
TTITLE1=B.B. King - Sweet Little Angel (live)
TTITLE2=Santana - Jingo
TTITLE3=Buddy Guy - Broken Hearted Blues
TTITLE4=Johnny Winter - Pick Up On My Mojo
TTITLE5=Otis Rush - So Many Roads, So Many Trains
TTITLE6=Mike Bloomfield - Uncle Bob's Barrelhouse Blues
TTITLE7=Lex Vandyke - Water Of Love
TTITLE8=Elmore James - Madison Blues
TTITLE9=Albert King - Won't Be Hanging Around
TTITLE10=Ike and Tina Turner - I Smell Trouble
TTITLE11=Mike Bloomfield - Eyesight To The Blind
TTITLE12=Lex Vandyke - White Room
TTITLE13=B.B. King - Guess Who (live)
EXTD=YEAR: 2000
EXTT0=
EXTT1=
EXTT2=
EXTT3=
EXTT4=
EXTT5=
EXTT6=
EXTT7=
EXTT8=
EXTT9=
EXTT10=
EXTT11=
EXTT12=
EXTT13=
PLAYORDER=
